<svg width="96" height="112" viewBox="0 0 96 112" fill="none" xmlns="http://www.w3.org/2000/svg">
<path d="M28.0463 9.95076C35.2827 1.16307 44.2319 -1.16309 55.1935 0.473835C60.9313 1.33537 66.8831 2.84307 71.1222 6.84922C75.0615 10.5538 76.9455 15.9385 79.7716 20.5477C83.1971 26.2338 88.1213 30.9723 91.1614 36.8738C100.624 55.2246 95.0579 83.9138 84.3532 100.455C82.1695 103.858 79.5147 107.132 76.0464 109.2C68.5102 113.68 59.0472 111.742 50.4406 110.062C40.9777 108.252 31.3434 106.831 21.7091 106.271C14.0017 105.84 7.49326 104.074 3.42547 96.6646C0.0427711 90.5477 -0.29978 83.2246 0.214047 76.2461C1.88398 53.1138 12.5031 31.36 26.0767 12.4923C26.719 11.6308 27.3612 10.7692 28.0463 9.95076Z" fill="white"/>
</svg>
